<svg width="16" height="16" viewBox="0 0 12.7531 12.7531" fill="none" xmlns="http://www.w3.org/2000/svg">
<path d="M6.37656 5.77658C6.70793 5.77658 6.97656 6.04521 6.97656 6.37658V9.26486C6.97656 9.59623 6.70793 9.86486 6.37656 9.86486C6.04518 9.86486 5.77656 9.59623 5.77656 9.26486V6.37658C5.77656 6.04521 6.04518 5.77658 6.37656 5.77658Z" fill="#676879"/>
<path d="M6.00832 3.25109C6.14116 3.16232 6.29735 3.11495 6.45712 3.11495C6.67136 3.11495 6.87683 3.20005 7.02833 3.35155C7.17983 3.50305 7.26493 3.70852 7.26493 3.92276C7.26493 4.08253 7.21756 4.23871 7.12879 4.37156C7.04003 4.50441 6.91386 4.60795 6.76626 4.66909C6.61864 4.73023 6.45622 4.74623 6.29952 4.71506C6.14283 4.68389 5.99888 4.60696 5.88591 4.49398C5.77293 4.381 5.69599 4.23706 5.66482 4.08036C5.63365 3.92366 5.64965 3.76124 5.71079 3.61363C5.77193 3.46602 5.87547 3.33986 6.00832 3.25109Z" fill="#676879"/>
<path fill-rule="evenodd" clip-rule="evenodd" d="M1.86765 1.86765C3.06348 0.671814 4.68539 0 6.37655 0C8.06772 0 9.68962 0.671814 10.8855 1.86765C12.0813 3.06348 12.7531 4.68539 12.7531 6.37655C12.7531 8.06772 12.0813 9.68962 10.8855 10.8855C9.68962 12.0813 8.06772 12.7531 6.37655 12.7531C4.68539 12.7531 3.06348 12.0813 1.86765 10.8855C0.671814 9.68962 0 8.06772 0 6.37655C0 4.68539 0.671814 3.06348 1.86765 1.86765ZM6.37655 1.2C5.00365 1.2 3.68697 1.74539 2.71618 2.71618C1.74539 3.68697 1.2 5.00365 1.2 6.37655C1.2 7.74946 1.74539 9.06614 2.71618 10.0369C3.68697 11.0077 5.00365 11.5531 6.37655 11.5531C7.74946 11.5531 9.06614 11.0077 10.0369 10.0369C11.0077 9.06614 11.5531 7.74946 11.5531 6.37655C11.5531 5.00365 11.0077 3.68697 10.0369 2.71618C9.06614 1.74539 7.74946 1.2 6.37655 1.2Z" fill="#676879"/>
</svg>
