<svg preserveAspectRatio="none" overflow="visible" style="display: block;" width="16" height="16" viewBox="0 0 16 16" fill="none" xmlns="http://www.w3.org/2000/svg">
<g id="Icon / Platform / Minus Round">
<g id="Union">
<path d="M10.4 7.40078C10.7314 7.40078 11 7.66941 11 8.00078C10.9998 8.33197 10.7312 8.60078 10.4 8.60078H5.6C5.26876 8.60078 5.00021 8.33197 5 8.00078C5 7.66941 5.26863 7.40078 5.6 7.40078H10.4Z" fill="#676879"/>
<path fill-rule="evenodd" clip-rule="evenodd" d="M8.00391 1.6C9.70222 1.6 11.3311 2.27498 12.532 3.47578C13.733 4.67676 14.4078 6.30624 14.4078 8.00469C14.4077 9.70303 13.7329 11.3319 12.532 12.5328C11.3311 13.7337 9.70226 14.4086 8.00391 14.4086C6.30554 14.4086 4.67673 13.7337 3.47578 12.5328C2.27487 11.3319 1.60008 9.70303 1.6 8.00469C1.6 6.30624 2.2748 4.67676 3.47578 3.47578C4.67672 2.27494 6.30559 1.60003 8.00391 1.6ZM8.00391 2.80078C6.62385 2.80081 5.30012 3.34842 4.32422 4.32422C3.34828 5.30016 2.8 6.6245 2.8 8.00469C2.80008 9.38477 3.34835 10.7085 4.32422 11.6844C5.30013 12.6602 6.6238 13.2086 8.00391 13.2086C9.384 13.2086 10.7077 12.6602 11.6836 11.6844C12.6595 10.7085 13.2077 9.38477 13.2078 8.00469C13.2078 6.6245 12.6595 5.30016 11.6836 4.32422C10.7077 3.34846 9.38396 2.80078 8.00391 2.80078Z" fill="#676879"/>
</g>
</g>
</svg>
