<svg preserveAspectRatio="none" overflow="visible" style="display: block;" width="24.568" height="25.9997" viewBox="0 0 24.568 25.9997" fill="none" xmlns="http://www.w3.org/2000/svg">
<path id="Ellipse 7855" d="M23.8417 17.6017C24.4629 17.8655 24.7578 18.5863 24.4369 19.1801C23.4965 20.9205 22.1684 22.4283 20.5491 23.5832C18.5973 24.9755 16.2985 25.8008 13.9068 25.9681C11.5152 26.1353 9.12387 25.6379 6.99727 24.5309C4.87067 23.4238 3.09162 21.7503 1.85683 19.6952C0.622026 17.6402 -0.0204266 15.2837 0.000495158 12.8863C0.0214169 10.4889 0.704898 8.14397 1.97537 6.11079C3.24585 4.0776 5.05383 2.43534 7.19943 1.36559C8.9794 0.478129 10.9342 0.013355 12.9124 2.57377e-05C13.5873 -0.00452195 14.0853 0.594258 14.0265 1.26661V1.26661C13.9677 1.93897 13.3738 2.4289 12.6991 2.44814C11.1715 2.4917 9.66637 2.86668 8.28999 3.55292C6.54778 4.42155 5.07972 5.75504 4.04811 7.40597C3.01649 9.0569 2.46151 10.961 2.44452 12.9076C2.42753 14.8543 2.9492 16.7677 3.95184 18.4364C4.95449 20.1051 6.39906 21.464 8.12584 22.3629C9.85262 23.2618 11.7943 23.6657 13.7363 23.5299C15.6783 23.3941 17.545 22.7239 19.1298 21.5934C20.3819 20.7003 21.4196 19.5474 22.1753 18.2191C22.509 17.6324 23.2204 17.338 23.8417 17.6017V17.6017Z" fill="#00C875"/>
</svg>
